<?xml version="1.0" standalone="no"?>
<!DOCTYPE svg PUBLIC "-//W3C//DTD SVG 20010904//EN"
 "http://www.w3.org/TR/2001/REC-SVG-20010904/DTD/svg10.dtd">
<svg version="1.0" xmlns="http://www.w3.org/2000/svg"
 width="936.000000pt" height="243.000000pt" viewBox="0 0 936.000000 243.000000"
 preserveAspectRatio="xMidYMid meet">

<g transform="translate(0.000000,243.000000) scale(0.100000,-0.100000)"
fill="#000000" stroke="none">
<path d="M2172 2348 c-19 -6 -55 -31 -82 -55 -154 -138 -99 -402 96 -459 172
-50 328 56 342 233 9 114 -35 207 -124 259 -38 22 -61 28 -123 30 -42 2 -91
-2 -109 -8z"/>
<path d="M40 1865 l0 -455 255 0 255 0 0 256 0 256 228 -4 c272 -6 297 -12
383 -97 69 -70 93 -131 92 -243 -2 -157 -84 -262 -235 -304 -45 -12 -127 -14
-515 -8 l-463 7 0 -622 0 -621 255 0 255 0 0 415 0 415 263 0 c286 0 351 7
475 49 116 40 185 84 279 177 65 65 89 98 121 165 49 101 59 139 71 252 17
167 -17 339 -91 465 -47 81 -160 191 -242 237 -100 56 -218 92 -336 105 -56 5
-315 10 -576 10 l-474 0 0 -455z"/>
<path d="M5200 1634 c-302 -37 -552 -206 -675 -457 -103 -211 -107 -483 -9
-695 167 -364 568 -550 993 -462 295 61 551 299 627 585 25 95 30 275 10 376
-63 307 -297 549 -610 629 -78 20 -263 33 -336 24z m266 -484 c144 -71 219
-237 184 -412 -36 -186 -160 -290 -345 -290 -148 0 -255 64 -317 190 -32 64
-33 71 -32 182 0 136 16 181 89 259 105 112 278 142 421 71z"/>
<path d="M8304 1628 c-93 -7 -200 -42 -282 -90 -32 -18 -98 -74 -148 -123 -79
-79 -98 -105 -143 -195 -143 -290 -118 -660 63 -913 228 -320 666 -403 981
-187 l45 31 0 -61 0 -60 245 0 245 0 0 785 0 785 -245 0 -245 0 0 -61 0 -61
-47 35 c-133 96 -276 131 -469 115z m352 -478 c70 -34 120 -87 156 -166 20
-42 23 -66 23 -164 0 -103 -3 -121 -26 -171 -53 -113 -139 -179 -258 -198
-143 -23 -271 32 -350 150 -91 137 -78 350 29 472 101 115 282 148 426 77z"/>
<path d="M7115 1612 c-73 -22 -108 -40 -169 -87 l-46 -35 0 55 0 55 -250 0
-250 0 0 -785 0 -785 250 0 249 0 3 493 3 492 31 55 c72 128 259 168 387 84
l38 -25 18 23 c10 13 75 95 144 183 l126 160 -27 28 c-15 16 -60 45 -101 65
-74 37 -76 37 -210 39 -107 2 -149 -1 -196 -15z"/>
<path d="M2020 815 l0 -785 245 0 245 0 0 785 0 785 -245 0 -245 0 0 -785z"/>
<path d="M2740 1595 c0 -3 117 -175 261 -382 143 -207 258 -382 255 -389 -3
-7 -127 -186 -276 -398 -148 -211 -270 -387 -270 -390 0 -4 120 -5 267 -4
l268 3 145 227 c80 125 148 229 150 232 3 2 70 -101 149 -230 l144 -234 284 0
c155 0 283 2 283 4 0 2 -124 185 -275 406 l-275 401 251 367 c139 202 256 373
262 380 7 9 -46 12 -259 12 l-269 0 -130 -210 c-71 -115 -133 -206 -138 -201
-5 5 -63 98 -131 207 l-122 199 -287 3 c-158 1 -287 0 -287 -3z"/>
</g>
</svg>
